<svg width="1133" height="502" viewBox="0 0 1133 502" fill="none" xmlns="http://www.w3.org/2000/svg">
<path opacity="0.1" d="M326.633 455.184C503.161 455.184 646.266 437.806 646.266 416.368C646.266 394.931 503.161 377.553 326.633 377.553C150.104 377.553 7 394.931 7 416.368C7 437.806 150.104 455.184 326.633 455.184Z" fill="#6C63FF"/>
<path d="M553.913 435.395C553.913 435.395 570.583 414.201 569.235 393.174C568.613 384.358 570.871 375.578 575.668 368.153C577.973 364.645 580.595 361.356 583.501 358.327" stroke="#535461" stroke-width="2" stroke-miterlimit="10"/>
<path d="M582.731 345.071C581.556 348.014 583.481 358.676 583.481 358.676C583.481 358.676 592.224 352.267 593.399 349.324C593.962 347.911 593.941 346.332 593.339 344.934C592.738 343.537 591.606 342.436 590.192 341.872C588.778 341.308 587.198 341.329 585.799 341.928C584.4 342.528 583.296 343.659 582.731 345.071V345.071Z" fill="#6C63FF"/>
<path d="M567.403 357.859C568.018 360.968 575.434 368.872 575.434 368.872C575.434 368.872 579.286 358.745 578.672 355.636C578.525 354.897 578.235 354.194 577.817 353.567C577.399 352.94 576.861 352.401 576.235 351.981C575.608 351.562 574.905 351.27 574.166 351.122C573.426 350.974 572.665 350.973 571.925 351.119C571.185 351.265 570.481 351.555 569.853 351.973C569.226 352.39 568.687 352.927 568.267 353.553C567.847 354.179 567.555 354.882 567.406 355.621C567.258 356.359 567.257 357.12 567.403 357.859V357.859Z" fill="#6C63FF"/>
<path d="M556.662 385.873C558.764 388.246 569.159 391.329 569.159 391.329C569.159 391.329 567.367 380.644 565.266 378.27C564.767 377.706 564.161 377.245 563.483 376.914C562.805 376.584 562.069 376.39 561.316 376.344C560.563 376.297 559.808 376.4 559.095 376.645C558.382 376.89 557.724 377.273 557.159 377.772C556.594 378.272 556.133 378.877 555.802 379.555C555.471 380.232 555.277 380.968 555.231 381.72C555.185 382.472 555.288 383.226 555.533 383.939C555.779 384.651 556.162 385.308 556.662 385.873V385.873Z" fill="#6C63FF"/>
<path d="M553.313 408.897C554.982 411.591 564.707 416.384 564.707 416.384C564.707 416.384 564.748 405.551 563.079 402.856C562.682 402.215 562.163 401.658 561.551 401.218C560.938 400.777 560.245 400.462 559.511 400.289C558.777 400.116 558.015 400.089 557.271 400.211C556.526 400.332 555.813 400.598 555.171 400.995C554.53 401.392 553.973 401.911 553.532 402.523C553.092 403.135 552.776 403.827 552.604 404.561C552.431 405.295 552.405 406.055 552.526 406.799C552.648 407.543 552.915 408.256 553.313 408.897V408.897Z" fill="#6C63FF"/>
<path d="M586.406 373.907C583.474 375.115 572.781 373.315 572.781 373.315C572.781 373.315 579.094 364.507 582.026 363.298C583.434 362.718 585.015 362.72 586.421 363.305C587.827 363.889 588.944 365.008 589.525 366.414C590.106 367.821 590.103 369.401 589.518 370.806C588.933 372.211 587.814 373.326 586.406 373.907V373.907Z" fill="#6C63FF"/>
<path d="M582.147 400.783C578.987 401.06 569.323 396.146 569.323 396.146C569.323 396.146 577.984 389.628 581.144 389.352C581.896 389.285 582.653 389.367 583.373 389.593C584.093 389.82 584.761 390.185 585.34 390.669C585.918 391.154 586.395 391.747 586.744 392.416C587.093 393.084 587.306 393.815 587.372 394.566C587.438 395.317 587.355 396.074 587.128 396.793C586.901 397.512 586.534 398.179 586.049 398.757C585.564 399.334 584.969 399.81 584.3 400.158C583.63 400.506 582.898 400.718 582.147 400.783V400.783Z" fill="#6C63FF"/>
<path d="M574.419 426.339C571.352 427.145 560.996 423.934 560.996 423.934C560.996 423.934 568.43 416.047 571.497 415.241C572.97 414.854 574.537 415.067 575.853 415.834C577.168 416.601 578.125 417.859 578.512 419.33C578.9 420.802 578.686 422.367 577.919 423.682C577.151 424.996 575.892 425.952 574.419 426.339V426.339Z" fill="#6C63FF"/>
<path opacity="0.25" d="M582.731 345.071C581.556 348.014 583.481 358.676 583.481 358.676C583.481 358.676 592.224 352.267 593.399 349.324C593.962 347.911 593.941 346.332 593.339 344.934C592.738 343.537 591.606 342.436 590.192 341.872C588.778 341.308 587.198 341.329 585.799 341.928C584.4 342.528 583.296 343.659 582.731 345.071V345.071Z" fill="black"/>
<path opacity="0.25" d="M567.403 357.859C568.018 360.968 575.434 368.872 575.434 368.872C575.434 368.872 579.286 358.745 578.672 355.636C578.525 354.897 578.235 354.194 577.817 353.567C577.399 352.94 576.861 352.401 576.235 351.981C575.608 351.562 574.905 351.27 574.166 351.122C573.426 350.974 572.665 350.973 571.925 351.119C571.185 351.265 570.481 351.555 569.853 351.973C569.226 352.39 568.687 352.927 568.267 353.553C567.847 354.179 567.555 354.882 567.406 355.621C567.258 356.359 567.257 357.12 567.403 357.859V357.859Z" fill="black"/>
<path opacity="0.25" d="M556.662 385.873C558.764 388.246 569.159 391.329 569.159 391.329C569.159 391.329 567.367 380.644 565.266 378.27C564.767 377.706 564.161 377.245 563.483 376.914C562.805 376.584 562.069 376.39 561.316 376.344C560.563 376.297 559.808 376.4 559.095 376.645C558.382 376.89 557.724 377.273 557.159 377.772C556.594 378.272 556.133 378.877 555.802 379.555C555.471 380.232 555.277 380.968 555.231 381.72C555.185 382.472 555.288 383.226 555.533 383.939C555.779 384.651 556.162 385.308 556.662 385.873V385.873Z" fill="black"/>
<path opacity="0.25" d="M553.313 408.897C554.982 411.591 564.707 416.384 564.707 416.384C564.707 416.384 564.748 405.551 563.079 402.856C562.682 402.215 562.163 401.658 561.551 401.218C560.938 400.777 560.245 400.462 559.511 400.289C558.777 400.116 558.015 400.089 557.271 400.211C556.526 400.332 555.813 400.598 555.171 400.995C554.53 401.392 553.973 401.911 553.532 402.523C553.092 403.135 552.776 403.827 552.604 404.561C552.431 405.295 552.405 406.055 552.526 406.799C552.648 407.543 552.915 408.256 553.313 408.897V408.897Z" fill="black"/>
<path opacity="0.25" d="M586.406 373.907C583.474 375.115 572.781 373.315 572.781 373.315C572.781 373.315 579.094 364.507 582.026 363.298C583.434 362.718 585.015 362.72 586.421 363.305C587.827 363.889 588.944 365.008 589.525 366.414C590.106 367.821 590.103 369.401 589.518 370.806C588.933 372.211 587.814 373.326 586.406 373.907V373.907Z" fill="black"/>
<path opacity="0.25" d="M582.147 400.783C578.987 401.06 569.323 396.146 569.323 396.146C569.323 396.146 577.984 389.628 581.144 389.352C581.896 389.285 582.653 389.367 583.373 389.593C584.093 389.82 584.761 390.185 585.34 390.669C585.918 391.154 586.395 391.747 586.744 392.416C587.093 393.084 587.306 393.815 587.372 394.566C587.438 395.317 587.355 396.074 587.128 396.793C586.901 397.512 586.534 398.179 586.049 398.757C585.564 399.334 584.969 399.81 584.3 400.158C583.63 400.506 582.898 400.718 582.147 400.783V400.783Z" fill="black"/>
<path opacity="0.25" d="M574.419 426.339C571.352 427.145 560.996 423.934 560.996 423.934C560.996 423.934 568.43 416.047 571.497 415.241C572.97 414.854 574.537 415.067 575.853 415.834C577.168 416.601 578.125 417.859 578.512 419.33C578.9 420.802 578.686 422.367 577.919 423.682C577.151 424.996 575.892 425.952 574.419 426.339V426.339Z" fill="black"/>
<path d="M554.054 434.512C554.054 434.512 577.891 421.886 585.187 402.117C588.194 393.805 593.818 386.692 601.216 381.846C604.746 379.573 608.477 377.628 612.362 376.035" stroke="#535461" stroke-width="2" stroke-miterlimit="10"/>
<path d="M617.035 363.604C614.766 365.819 612.202 376.345 612.202 376.345C612.202 376.345 622.794 374.026 625.063 371.811C626.152 370.747 626.774 369.295 626.791 367.773C626.809 366.251 626.22 364.785 625.156 363.697C624.091 362.609 622.637 361.987 621.114 361.97C619.591 361.952 618.124 362.54 617.035 363.604V363.604Z" fill="#6C63FF"/>
<path d="M597.835 369.09C597.136 372.181 600.71 382.409 600.71 382.409C600.71 382.409 608.339 374.71 609.038 371.619C609.204 370.884 609.224 370.124 609.096 369.381C608.968 368.639 608.695 367.929 608.292 367.291C607.89 366.654 607.366 366.103 606.75 365.668C606.134 365.233 605.438 364.924 604.702 364.758C603.967 364.592 603.206 364.572 602.462 364.7C601.719 364.828 601.008 365.1 600.371 365.503C599.733 365.905 599.181 366.429 598.746 367.044C598.311 367.66 598.001 368.355 597.835 369.09V369.09Z" fill="#6C63FF"/>
<path d="M576.653 390.351C577.611 393.372 585.865 400.399 585.865 400.399C585.865 400.399 588.561 389.905 587.602 386.885C587.375 386.166 587.007 385.5 586.522 384.923C586.036 384.347 585.442 383.872 584.772 383.525C584.103 383.178 583.371 382.966 582.62 382.901C581.869 382.837 581.112 382.921 580.393 383.148C579.674 383.376 579.007 383.743 578.43 384.228C577.853 384.713 577.377 385.307 577.03 385.976C576.683 386.645 576.471 387.375 576.406 388.126C576.341 388.877 576.425 389.633 576.653 390.351V390.351Z" fill="#6C63FF"/>
<path d="M564.253 410.044C564.686 413.183 571.632 421.502 571.632 421.502C571.632 421.502 576.064 411.615 575.631 408.476C575.528 407.73 575.279 407.011 574.898 406.361C574.516 405.71 574.011 405.142 573.41 404.687C572.809 404.232 572.124 403.899 571.394 403.709C570.664 403.518 569.904 403.473 569.157 403.576C568.41 403.679 567.691 403.928 567.04 404.309C566.389 404.69 565.82 405.195 565.364 405.796C564.909 406.396 564.576 407.08 564.386 407.81C564.195 408.539 564.15 409.298 564.253 410.044V410.044Z" fill="#6C63FF"/>
<path d="M608.699 391.454C605.528 391.371 596.482 385.397 596.482 385.397C596.482 385.397 605.826 379.9 608.997 379.982C610.519 380.022 611.964 380.664 613.013 381.767C614.061 382.871 614.628 384.346 614.589 385.867C614.549 387.388 613.906 388.831 612.802 389.879C611.697 390.927 610.221 391.493 608.699 391.454H608.699Z" fill="#6C63FF"/>
<path d="M593.904 414.301C590.903 413.275 584.061 404.87 584.061 404.87C584.061 404.87 594.623 402.418 597.624 403.444C599.065 403.937 600.251 404.981 600.921 406.348C601.591 407.714 601.691 409.291 601.197 410.731C600.704 412.17 599.658 413.355 598.291 414.025C596.923 414.694 595.345 414.794 593.904 414.301V414.301Z" fill="#6C63FF"/>
<path d="M576.474 434.535C573.343 434.03 565.178 426.902 565.178 426.902C565.178 426.902 575.173 422.702 578.304 423.206C579.808 423.449 581.154 424.278 582.045 425.512C582.937 426.746 583.301 428.283 583.059 429.785C582.816 431.287 581.986 432.632 580.751 433.523C579.516 434.414 577.978 434.778 576.474 434.535V434.535Z" fill="#6C63FF"/>
<path d="M317.234 398.959C329.094 398.959 338.709 388.762 338.709 376.185C338.709 363.607 329.094 353.41 317.234 353.41C305.374 353.41 295.759 363.607 295.759 376.185C295.759 388.762 305.374 398.959 317.234 398.959Z" fill="#FBD56F"/>
<path opacity="0.1" d="M317.234 398.959C329.094 398.959 338.709 388.762 338.709 376.185C338.709 363.607 329.094 353.41 317.234 353.41C305.374 353.41 295.759 363.607 295.759 376.185C295.759 388.762 305.374 398.959 317.234 398.959Z" fill="black"/>
<path d="M320.94 398.959C332.801 398.959 342.415 388.989 342.415 376.692C342.415 364.394 332.801 354.425 320.94 354.425C309.08 354.425 299.466 364.394 299.466 376.692C299.466 388.989 309.08 398.959 320.94 398.959Z" fill="#FBD56F"/>
<path d="M329.639 396.871L327.405 395.628C327.405 395.628 326.36 399.984 326.701 403.088C326.735 403.403 326.865 403.7 327.073 403.939C327.281 404.178 327.557 404.347 327.865 404.424C333.003 405.699 357.495 411.131 374.337 403.48C374.582 403.369 374.793 403.196 374.949 402.979C375.106 402.761 375.204 402.506 375.232 402.24C375.439 400.332 374.708 396.395 374.416 395.628C373.788 393.977 329.639 396.871 329.639 396.871Z" fill="#FBD56F"/>
<path opacity="0.1" d="M329.639 396.871L327.405 395.628C327.405 395.628 326.36 399.984 326.701 403.088C326.735 403.403 326.865 403.7 327.073 403.939C327.281 404.178 327.557 404.347 327.865 404.424C333.003 405.699 357.495 411.131 374.337 403.48C374.582 403.369 374.793 403.196 374.949 402.979C375.106 402.761 375.204 402.506 375.232 402.24C375.439 400.332 374.708 396.395 374.416 395.628C373.788 393.977 329.639 396.871 329.639 396.871Z" fill="black"/>
<path d="M350.91 400.922C363.892 400.922 374.416 398.552 374.416 395.628C374.416 392.705 363.892 390.334 350.91 390.334C337.928 390.334 327.405 392.705 327.405 395.628C327.405 398.552 337.928 400.922 350.91 400.922Z" fill="#FBD56F"/>
<path d="M338.619 389.06L336.385 387.818C336.385 387.818 335.34 392.174 335.682 395.278C335.716 395.593 335.845 395.89 336.053 396.129C336.261 396.368 336.538 396.537 336.845 396.614C341.984 397.889 366.476 403.321 383.318 395.67C383.562 395.559 383.773 395.386 383.93 395.168C384.087 394.951 384.184 394.696 384.213 394.429C384.419 392.521 383.688 388.585 383.396 387.818C382.768 386.167 338.619 389.06 338.619 389.06Z" fill="#FBD56F"/>
<path opacity="0.1" d="M338.619 389.06L336.385 387.818C336.385 387.818 335.34 392.174 335.682 395.278C335.716 395.593 335.845 395.89 336.053 396.129C336.261 396.368 336.538 396.537 336.845 396.614C341.984 397.889 366.476 403.321 383.318 395.67C383.562 395.559 383.773 395.386 383.93 395.168C384.087 394.951 384.184 394.696 384.213 394.429C384.419 392.521 383.688 388.585 383.396 387.818C382.768 386.167 338.619 389.06 338.619 389.06Z" fill="black"/>
<path d="M359.891 393.111C372.872 393.111 383.396 390.741 383.396 387.818C383.396 384.894 372.872 382.524 359.891 382.524C346.909 382.524 336.385 384.894 336.385 387.818C336.385 390.741 346.909 393.111 359.891 393.111Z" fill="#FBD56F"/>
<path d="M346.558 378.795L344.324 377.552C344.324 377.552 343.279 381.909 343.621 385.013C343.655 385.328 343.784 385.625 343.992 385.864C344.2 386.102 344.477 386.272 344.784 386.349C349.923 387.624 374.415 393.056 391.257 385.405C391.501 385.293 391.712 385.12 391.869 384.903C392.026 384.685 392.123 384.431 392.152 384.164C392.359 382.256 391.627 378.319 391.335 377.552C390.707 375.902 346.558 378.795 346.558 378.795Z" fill="#FBD56F"/>
<path opacity="0.1" d="M346.558 378.795L344.324 377.552C344.324 377.552 343.279 381.909 343.621 385.013C343.655 385.328 343.784 385.625 343.992 385.864C344.2 386.102 344.477 386.272 344.784 386.349C349.923 387.624 374.415 393.056 391.257 385.405C391.501 385.293 391.712 385.12 391.869 384.903C392.026 384.685 392.123 384.431 392.152 384.164C392.359 382.256 391.627 378.319 391.335 377.552C390.707 375.902 346.558 378.795 346.558 378.795Z" fill="black"/>
<path d="M367.83 382.846C380.812 382.846 391.335 380.476 391.335 377.552C391.335 374.629 380.812 372.259 367.83 372.259C354.848 372.259 344.324 374.629 344.324 377.552C344.324 380.476 354.848 382.846 367.83 382.846Z" fill="#FBD56F"/>
<path d="M337.766 368.109L335.532 366.867C335.532 366.867 334.487 371.223 334.829 374.327C334.863 374.642 334.992 374.939 335.2 375.178C335.408 375.417 335.685 375.586 335.992 375.663C341.131 376.938 365.623 382.37 382.465 374.719C382.709 374.608 382.92 374.435 383.077 374.217C383.234 374 383.332 373.745 383.36 373.478C383.567 371.57 382.835 367.634 382.543 366.867C381.915 365.216 337.766 368.109 337.766 368.109Z" fill="#FBD56F"/>
<path opacity="0.1" d="M337.766 368.109L335.532 366.867C335.532 366.867 334.487 371.223 334.829 374.327C334.863 374.642 334.992 374.939 335.2 375.178C335.408 375.417 335.685 375.586 335.992 375.663C341.131 376.938 365.623 382.37 382.465 374.719C382.709 374.608 382.92 374.435 383.077 374.217C383.234 374 383.332 373.745 383.36 373.478C383.567 371.57 382.835 367.634 382.543 366.867C381.915 365.216 337.766 368.109 337.766 368.109Z" fill="black"/>
<path d="M359.038 372.16C372.019 372.16 382.543 369.79 382.543 366.866C382.543 363.943 372.019 361.573 359.038 361.573C346.056 361.573 335.532 363.943 335.532 366.866C335.532 369.79 346.056 372.16 359.038 372.16Z" fill="#FBD56F"/>
<path d="M357.545 359.534L355.311 358.291C355.311 358.291 354.266 362.647 354.608 365.752C354.642 366.066 354.771 366.363 354.979 366.602C355.187 366.841 355.464 367.011 355.771 367.087C360.91 368.362 385.402 373.795 402.244 366.144C402.488 366.032 402.699 365.859 402.856 365.642C403.013 365.424 403.11 365.169 403.139 364.903C403.346 362.995 402.614 359.058 402.322 358.291C401.694 356.64 357.545 359.534 357.545 359.534Z" fill="#FBD56F"/>
<path opacity="0.1" d="M357.545 359.534L355.311 358.291C355.311 358.291 354.266 362.647 354.608 365.752C354.642 366.066 354.771 366.363 354.979 366.602C355.187 366.841 355.464 367.011 355.771 367.087C360.91 368.362 385.402 373.795 402.244 366.144C402.488 366.032 402.699 365.859 402.856 365.642C403.013 365.424 403.11 365.169 403.139 364.903C403.346 362.995 402.614 359.058 402.322 358.291C401.694 356.64 357.545 359.534 357.545 359.534Z" fill="black"/>
<path d="M378.817 363.585C391.798 363.585 402.322 361.215 402.322 358.291C402.322 355.368 391.798 352.998 378.817 352.998C365.835 352.998 355.311 355.368 355.311 358.291C355.311 361.215 365.835 363.585 378.817 363.585Z" fill="#FBD56F"/>
<path d="M344.181 353.77L341.948 352.527C341.948 352.527 340.903 356.883 341.244 359.988C341.278 360.303 341.408 360.599 341.616 360.838C341.824 361.077 342.1 361.247 342.408 361.324C347.546 362.599 372.038 368.031 388.88 360.38C389.124 360.268 389.335 360.095 389.492 359.878C389.649 359.66 389.747 359.405 389.775 359.139C389.982 357.231 389.251 353.294 388.959 352.527C388.331 350.876 344.181 353.77 344.181 353.77Z" fill="#FBD56F"/>
<path opacity="0.1" d="M344.181 353.77L341.948 352.527C341.948 352.527 340.903 356.883 341.244 359.988C341.278 360.303 341.408 360.599 341.616 360.838C341.824 361.077 342.1 361.247 342.408 361.324C347.546 362.599 372.038 368.031 388.88 360.38C389.124 360.268 389.335 360.095 389.492 359.878C389.649 359.66 389.747 359.405 389.775 359.139C389.982 357.231 389.251 353.294 388.959 352.527C388.331 350.876 344.181 353.77 344.181 353.77Z" fill="black"/>
<path d="M365.453 357.821C378.435 357.821 388.959 355.451 388.959 352.527C388.959 349.604 378.435 347.234 365.453 347.234C352.471 347.234 341.948 349.604 341.948 352.527C341.948 355.451 352.471 357.821 365.453 357.821Z" fill="#FBD56F"/>
<path d="M353.104 342.642L350.87 341.4C350.87 341.4 349.825 345.756 350.166 348.86C350.2 349.175 350.33 349.472 350.538 349.711C350.746 349.95 351.022 350.119 351.33 350.196C356.468 351.471 380.96 356.903 397.802 349.252C398.047 349.141 398.258 348.968 398.415 348.75C398.571 348.533 398.669 348.278 398.697 348.011C398.904 346.104 398.173 342.167 397.881 341.4C397.253 339.749 353.104 342.642 353.104 342.642Z" fill="#FBD56F"/>
<path opacity="0.1" d="M353.104 342.642L350.87 341.4C350.87 341.4 349.825 345.756 350.166 348.86C350.2 349.175 350.33 349.472 350.538 349.711C350.746 349.95 351.022 350.119 351.33 350.196C356.468 351.471 380.96 356.903 397.802 349.252C398.047 349.141 398.258 348.968 398.415 348.75C398.571 348.533 398.669 348.278 398.697 348.011C398.904 346.104 398.173 342.167 397.881 341.4C397.253 339.749 353.104 342.642 353.104 342.642Z" fill="black"/>
<path d="M374.375 346.694C387.357 346.694 397.881 344.323 397.881 341.4C397.881 338.476 387.357 336.106 374.375 336.106C361.394 336.106 350.87 338.476 350.87 341.4C350.87 344.323 361.394 346.694 374.375 346.694Z" fill="#FBD56F"/>
<path d="M357.505 329.434L355.271 328.192C355.271 328.192 354.226 332.548 354.567 335.652C354.601 335.967 354.731 336.264 354.939 336.503C355.147 336.742 355.423 336.911 355.731 336.988C360.869 338.263 385.361 343.695 402.203 336.044C402.448 335.933 402.659 335.76 402.815 335.542C402.972 335.325 403.07 335.07 403.098 334.803C403.305 332.896 402.574 328.959 402.282 328.192C401.654 326.541 357.505 329.434 357.505 329.434Z" fill="#FBD56F"/>
<path opacity="0.1" d="M357.505 329.434L355.271 328.192C355.271 328.192 354.226 332.548 354.567 335.652C354.601 335.967 354.731 336.264 354.939 336.503C355.147 336.742 355.423 336.911 355.731 336.988C360.869 338.263 385.361 343.695 402.203 336.044C402.448 335.933 402.659 335.76 402.815 335.542C402.972 335.325 403.07 335.07 403.098 334.803C403.305 332.896 402.574 328.959 402.282 328.192C401.654 326.541 357.505 329.434 357.505 329.434Z" fill="black"/>
<path d="M378.776 333.486C391.758 333.486 402.282 331.115 402.282 328.192C402.282 325.268 391.758 322.898 378.776 322.898C365.795 322.898 355.271 325.268 355.271 328.192C355.271 331.115 365.795 333.486 378.776 333.486Z" fill="#FBD56F"/>
<path d="M397.184 399.934L394.95 398.691C394.95 398.691 393.905 403.047 394.247 406.152C394.281 406.467 394.41 406.764 394.618 407.002C394.826 407.241 395.103 407.411 395.41 407.488C400.549 408.763 425.041 414.195 441.883 406.544C442.127 406.432 442.338 406.259 442.495 406.042C442.652 405.824 442.749 405.57 442.778 405.303C442.984 403.395 442.253 399.458 441.961 398.691C441.333 397.041 397.184 399.934 397.184 399.934Z" fill="#FBD56F"/>
<path opacity="0.1" d="M397.184 399.934L394.95 398.691C394.95 398.691 393.905 403.047 394.247 406.152C394.281 406.467 394.41 406.764 394.618 407.002C394.826 407.241 395.103 407.411 395.41 407.488C400.549 408.763 425.041 414.195 441.883 406.544C442.127 406.432 442.338 406.259 442.495 406.042C442.652 405.824 442.749 405.57 442.778 405.303C442.984 403.395 442.253 399.458 441.961 398.691C441.333 397.041 397.184 399.934 397.184 399.934Z" fill="black"/>
<path d="M418.456 403.985C431.437 403.985 441.961 401.615 441.961 398.691C441.961 395.768 431.437 393.397 418.456 393.397C405.474 393.397 394.95 395.768 394.95 398.691C394.95 401.615 405.474 403.985 418.456 403.985Z" fill="#FBD56F"/>
<path d="M405.123 389.669L402.889 388.426C402.889 388.426 401.844 392.782 402.186 395.887C402.22 396.201 402.349 396.498 402.557 396.737C402.765 396.976 403.042 397.146 403.349 397.222C408.488 398.497 432.98 403.93 449.822 396.279C450.066 396.167 450.277 395.994 450.434 395.777C450.591 395.559 450.689 395.304 450.717 395.038C450.924 393.13 450.192 389.193 449.9 388.426C449.272 386.775 405.123 389.669 405.123 389.669Z" fill="#FBD56F"/>
<path opacity="0.1" d="M405.123 389.669L402.889 388.426C402.889 388.426 401.844 392.782 402.186 395.887C402.22 396.201 402.349 396.498 402.557 396.737C402.765 396.976 403.042 397.146 403.349 397.222C408.488 398.497 432.98 403.93 449.822 396.279C450.066 396.167 450.277 395.994 450.434 395.777C450.591 395.559 450.689 395.304 450.717 395.038C450.924 393.13 450.192 389.193 449.9 388.426C449.272 386.775 405.123 389.669 405.123 389.669Z" fill="black"/>
<path d="M426.395 393.72C439.377 393.72 449.9 391.35 449.9 388.426C449.9 385.502 439.377 383.132 426.395 383.132C413.413 383.132 402.889 385.502 402.889 388.426C402.889 391.35 413.413 393.72 426.395 393.72Z" fill="#FBD56F"/>
<path d="M396.331 378.983L394.097 377.74C394.097 377.74 393.053 382.096 393.394 385.201C393.428 385.515 393.557 385.812 393.765 386.051C393.973 386.29 394.25 386.46 394.557 386.536C399.696 387.811 424.188 393.243 441.03 385.593C441.274 385.481 441.485 385.308 441.642 385.091C441.799 384.873 441.897 384.618 441.925 384.352C442.132 382.444 441.4 378.507 441.108 377.74C440.48 376.089 396.331 378.983 396.331 378.983Z" fill="#FBD56F"/>
<path opacity="0.1" d="M396.331 378.983L394.097 377.74C394.097 377.74 393.053 382.096 393.394 385.201C393.428 385.515 393.557 385.812 393.765 386.051C393.973 386.29 394.25 386.46 394.557 386.536C399.696 387.811 424.188 393.243 441.03 385.593C441.274 385.481 441.485 385.308 441.642 385.091C441.799 384.873 441.897 384.618 441.925 384.352C442.132 382.444 441.4 378.507 441.108 377.74C440.48 376.089 396.331 378.983 396.331 378.983Z" fill="black"/>
<path d="M417.603 383.034C430.585 383.034 441.108 380.664 441.108 377.74C441.108 374.817 430.585 372.447 417.603 372.447C404.621 372.447 394.097 374.817 394.097 377.74C394.097 380.664 404.621 383.034 417.603 383.034Z" fill="#FBD56F"/>
<path d="M416.11 370.407L413.876 369.165C413.876 369.165 412.831 373.521 413.173 376.625C413.207 376.94 413.336 377.237 413.544 377.476C413.752 377.715 414.029 377.884 414.336 377.961C419.475 379.236 443.967 384.668 460.809 377.017C461.053 376.906 461.264 376.733 461.421 376.515C461.578 376.298 461.675 376.043 461.704 375.776C461.911 373.868 461.179 369.932 460.887 369.165C460.259 367.514 416.11 370.407 416.11 370.407Z" fill="#FBD56F"/>
<path opacity="0.1" d="M416.11 370.407L413.876 369.165C413.876 369.165 412.831 373.521 413.173 376.625C413.207 376.94 413.336 377.237 413.544 377.476C413.752 377.715 414.029 377.884 414.336 377.961C419.475 379.236 443.967 384.668 460.809 377.017C461.053 376.906 461.264 376.733 461.421 376.515C461.578 376.298 461.675 376.043 461.704 375.776C461.911 373.868 461.179 369.932 460.887 369.165C460.259 367.514 416.11 370.407 416.11 370.407Z" fill="black"/>
<path d="M437.382 374.458C450.364 374.458 460.887 372.088 460.887 369.165C460.887 366.241 450.364 363.871 437.382 363.871C424.4 363.871 413.876 366.241 413.876 369.165C413.876 372.088 424.4 374.458 437.382 374.458Z" fill="#FBD56F"/>
<path d="M402.746 364.644L400.513 363.401C400.513 363.401 399.468 367.757 399.809 370.861C399.843 371.176 399.973 371.473 400.181 371.712C400.389 371.951 400.665 372.12 400.973 372.197C406.111 373.472 430.603 378.904 447.445 371.253C447.69 371.142 447.9 370.969 448.057 370.752C448.214 370.534 448.312 370.279 448.34 370.013C448.547 368.105 447.816 364.168 447.524 363.401C446.896 361.75 402.746 364.644 402.746 364.644Z" fill="#FBD56F"/>
<path opacity="0.1" d="M402.746 364.644L400.513 363.401C400.513 363.401 399.468 367.757 399.809 370.861C399.843 371.176 399.973 371.473 400.181 371.712C400.389 371.951 400.665 372.12 400.973 372.197C406.111 373.472 430.603 378.904 447.445 371.253C447.69 371.142 447.9 370.969 448.057 370.752C448.214 370.534 448.312 370.279 448.34 370.013C448.547 368.105 447.816 364.168 447.524 363.401C446.896 361.75 402.746 364.644 402.746 364.644Z" fill="black"/>
<path d="M424.018 368.695C437 368.695 447.524 366.324 447.524 363.401C447.524 360.477 437 358.107 424.018 358.107C411.036 358.107 400.513 360.477 400.513 363.401C400.513 366.324 411.036 368.695 424.018 368.695Z" fill="#FBD56F"/>
<path d="M411.669 353.516L409.435 352.274C409.435 352.274 408.39 356.63 408.732 359.734C408.765 360.049 408.895 360.346 409.103 360.585C409.311 360.824 409.587 360.993 409.895 361.07C415.033 362.345 439.525 367.777 456.367 360.126C456.612 360.015 456.823 359.842 456.98 359.624C457.136 359.406 457.234 359.152 457.263 358.885C457.469 356.977 456.738 353.041 456.446 352.274C455.818 350.623 411.669 353.516 411.669 353.516Z" fill="#FBD56F"/>
<path opacity="0.1" d="M411.669 353.516L409.435 352.274C409.435 352.274 408.39 356.63 408.732 359.734C408.765 360.049 408.895 360.346 409.103 360.585C409.311 360.824 409.587 360.993 409.895 361.07C415.033 362.345 439.525 367.777 456.367 360.126C456.612 360.015 456.823 359.842 456.98 359.624C457.136 359.406 457.234 359.152 457.263 358.885C457.469 356.977 456.738 353.041 456.446 352.274C455.818 350.623 411.669 353.516 411.669 353.516Z" fill="black"/>
<path d="M432.94 357.567C445.922 357.567 456.446 355.197 456.446 352.273C456.446 349.35 445.922 346.979 432.94 346.979C419.959 346.979 409.435 349.35 409.435 352.273C409.435 355.197 419.959 357.567 432.94 357.567Z" fill="#FBD56F"/>
<path d="M416.07 340.308L413.836 339.066C413.836 339.066 412.791 343.422 413.132 346.526C413.166 346.841 413.296 347.138 413.504 347.377C413.712 347.616 413.988 347.785 414.296 347.862C419.434 349.137 443.926 354.569 460.768 346.918C461.013 346.807 461.224 346.634 461.381 346.416C461.537 346.198 461.635 345.944 461.663 345.677C461.87 343.769 461.139 339.833 460.847 339.066C460.219 337.415 416.07 340.308 416.07 340.308Z" fill="#FBD56F"/>
<path opacity="0.1" d="M416.07 340.308L413.836 339.066C413.836 339.066 412.791 343.422 413.132 346.526C413.166 346.841 413.296 347.138 413.504 347.377C413.712 347.616 413.988 347.785 414.296 347.862C419.434 349.137 443.926 354.569 460.768 346.918C461.013 346.807 461.224 346.634 461.381 346.416C461.537 346.198 461.635 345.944 461.663 345.677C461.87 343.769 461.139 339.833 460.847 339.066C460.219 337.415 416.07 340.308 416.07 340.308Z" fill="black"/>
<path d="M437.341 344.359C450.323 344.359 460.847 341.989 460.847 339.066C460.847 336.142 450.323 333.772 437.341 333.772C424.36 333.772 413.836 336.142 413.836 339.066C413.836 341.989 424.36 344.359 437.341 344.359Z" fill="#FBD56F"/>
<path d="M366.017 431.452C377.878 431.452 387.492 421.255 387.492 408.677C387.492 396.1 377.878 385.903 366.017 385.903C354.157 385.903 344.542 396.1 344.542 408.677C344.542 421.255 354.157 431.452 366.017 431.452Z" fill="#FBD56F"/>
<path opacity="0.1" d="M366.017 431.452C377.878 431.452 387.492 421.255 387.492 408.677C387.492 396.1 377.878 385.903 366.017 385.903C354.157 385.903 344.542 396.1 344.542 408.677C344.542 421.255 354.157 431.452 366.017 431.452Z" fill="black"/>
<path d="M369.723 431.451C381.584 431.451 391.198 421.482 391.198 409.184C391.198 396.887 381.584 386.917 369.723 386.917C357.863 386.917 348.249 396.887 348.249 409.184C348.249 421.482 357.863 431.451 369.723 431.451Z" fill="#FBD56F"/>
<path d="M58.5431 421.192C73.1913 421.192 85.0661 419.187 85.0661 416.713C85.0661 414.239 73.1913 412.233 58.5431 412.233C43.8948 412.233 32.02 414.239 32.02 416.713C32.02 419.187 43.8948 421.192 58.5431 421.192Z" fill="#6C63FF"/>
<path d="M69.5103 409.384C70.6461 408.33 71.7117 407.086 72.039 405.571C72.3662 404.057 71.7203 402.241 70.272 401.688C68.6492 401.068 66.915 402.192 65.6002 403.327C64.2855 404.462 62.7786 405.757 61.0579 405.517C61.943 404.715 62.6053 403.698 62.98 402.565C63.3548 401.432 63.4294 400.221 63.1965 399.05C63.121 398.567 62.9154 398.113 62.6017 397.737C61.7009 396.775 60.0678 397.188 58.9891 397.946C55.5589 400.357 54.6017 405.012 54.583 409.202C54.2371 407.691 54.5285 406.116 54.5199 404.566C54.5114 403.015 54.0861 401.297 52.7771 400.464C51.9617 400.025 51.0446 399.81 50.119 399.84C48.577 399.783 46.8596 399.937 45.8066 401.064C44.4982 402.464 44.8375 404.813 45.9758 406.355C47.1141 407.896 48.8455 408.862 50.4392 409.926C51.7176 410.687 52.8079 411.726 53.6289 412.966C53.7254 413.139 53.8046 413.321 53.8654 413.509H63.5322C65.7021 412.41 67.7131 411.022 69.5103 409.384V409.384Z" fill="#6C63FF"/>
<path d="M298.398 387.502C299.58 389.118 300.546 390.881 301.273 392.747C301.465 393.229 301.653 393.735 301.831 394.267C304.689 402.799 300.161 413.031 298.866 411.927C297.572 410.823 293.538 408.776 292.758 411.653C291.978 414.531 289.097 417.472 289.097 417.472C283.848 422.747 279.097 417.048 275.978 411.159C274.959 409.216 274.053 407.216 273.264 405.169C272.572 403.361 272.174 402.111 272.174 402.111L294.038 383.499C294.038 383.499 296.152 384.469 298.398 387.502Z" fill="#6C63FF"/>
<path d="M263.94 399.403C265.121 401.019 266.088 402.782 266.814 404.647C267.007 405.129 267.195 405.636 267.372 406.168C270.23 414.7 265.702 424.931 264.408 423.828C263.113 422.724 259.08 420.676 258.3 423.554C257.52 426.431 254.639 429.372 254.639 429.372C249.389 434.647 244.638 428.948 241.519 423.06C240.5 421.117 239.594 419.117 238.806 417.07C238.113 415.261 237.716 414.011 237.716 414.011L259.579 395.4C259.579 395.4 261.693 396.369 263.94 399.403Z" fill="#6C63FF"/>
<path d="M194.751 415.844C194.628 417.842 194.246 419.815 193.614 421.715C193.454 422.208 193.275 422.718 193.072 423.241C189.822 431.632 179.801 436.622 179.509 434.947C179.217 433.272 177.42 429.123 174.981 430.841C172.543 432.559 168.446 432.987 168.446 432.987C161.035 433.701 161.018 426.284 162.378 419.761C162.835 417.616 163.415 415.499 164.115 413.42C164.738 411.586 165.23 410.37 165.23 410.37L193.95 409.982C193.95 409.982 194.958 412.076 194.751 415.844Z" fill="#6C63FF"/>
<path d="M157.642 406.493C157.519 408.491 157.137 410.464 156.505 412.364C156.345 412.858 156.166 413.368 155.963 413.89C152.713 422.281 142.692 427.271 142.4 425.596C142.109 423.921 140.311 419.773 137.873 421.491C135.434 423.209 131.337 423.636 131.337 423.636C123.927 424.35 123.909 416.933 125.27 410.411C125.726 408.265 126.306 406.148 127.007 404.069C127.629 402.235 128.121 401.019 128.121 401.019L156.842 400.631C156.842 400.631 157.85 402.725 157.642 406.493Z" fill="#6C63FF"/>
<path opacity="0.2" d="M298.398 387.502C299.58 389.118 300.546 390.881 301.273 392.747C301.465 393.229 301.653 393.735 301.831 394.267C304.689 402.799 300.161 413.031 298.866 411.927C297.572 410.823 293.538 408.776 292.758 411.653C291.978 414.531 289.097 417.472 289.097 417.472C283.848 422.747 279.097 417.048 275.978 411.159C274.959 409.216 274.053 407.216 273.264 405.169C272.572 403.361 272.174 402.111 272.174 402.111L294.038 383.499C294.038 383.499 296.152 384.469 298.398 387.502Z" fill="black"/>
<path opacity="0.2" d="M263.94 399.403C265.121 401.019 266.088 402.782 266.814 404.647C267.007 405.129 267.195 405.636 267.372 406.168C270.23 414.7 265.702 424.931 264.408 423.828C263.113 422.724 259.08 420.676 258.3 423.554C257.52 426.431 254.639 429.372 254.639 429.372C249.389 434.647 244.638 428.948 241.519 423.06C240.5 421.117 239.594 419.117 238.806 417.07C238.113 415.261 237.716 414.011 237.716 414.011L259.579 395.4C259.579 395.4 261.693 396.369 263.94 399.403Z" fill="black"/>
<path opacity="0.2" d="M194.751 415.844C194.628 417.842 194.246 419.815 193.614 421.715C193.454 422.208 193.275 422.718 193.072 423.241C189.822 431.632 179.801 436.622 179.509 434.947C179.217 433.272 177.42 429.123 174.981 430.841C172.543 432.559 168.446 432.987 168.446 432.987C161.035 433.701 161.018 426.284 162.378 419.761C162.835 417.616 163.415 415.499 164.115 413.42C164.738 411.586 165.23 410.37 165.23 410.37L193.95 409.982C193.95 409.982 194.958 412.076 194.751 415.844Z" fill="black"/>
<path opacity="0.2" d="M157.642 406.493C157.519 408.491 157.137 410.464 156.505 412.364C156.345 412.858 156.166 413.368 155.963 413.89C152.713 422.281 142.692 427.271 142.4 425.596C142.109 423.921 140.311 419.773 137.873 421.491C135.434 423.209 131.337 423.636 131.337 423.636C123.927 424.35 123.909 416.933 125.27 410.411C125.726 408.265 126.306 406.148 127.007 404.069C127.629 402.235 128.121 401.019 128.121 401.019L156.842 400.631C156.842 400.631 157.85 402.725 157.642 406.493Z" fill="black"/>
<path d="M356.718 280.736C356.718 357.378 330.768 419.508 211.014 419.508C130.543 419.508 68.2871 399.532 65.3092 280.736C63.3885 204.118 130.543 141.964 211.014 141.964C291.484 141.964 356.718 204.094 356.718 280.736Z" fill="#6C63FF"/>
<path opacity="0.2" d="M183.681 144.386H183.698C183.694 144.389 183.69 144.39 183.685 144.391L183.681 144.386Z" fill="black"/>
<path opacity="0.2" d="M183.966 144.34C184.336 144.28 185.068 144.178 186.131 144.097L183.762 144.378C183.796 144.369 183.838 144.361 183.889 144.352C183.915 144.348 183.936 144.344 183.966 144.34Z" fill="black"/>
<path opacity="0.2" d="M291.63 201.043L280.995 204.868C275.573 197.604 269.739 190.656 263.523 184.058C256.737 176.828 249.334 170.202 241.397 164.256C214.166 144.093 193.104 143.579 186.148 144.097L202.135 142.219C217.245 144.816 231.776 150.064 245.055 157.719C254.346 163.07 262.999 169.457 270.848 176.756C284.768 189.665 291.63 201.043 291.63 201.043Z" fill="black"/>
<path opacity="0.2" d="M195.486 208.268C195.486 208.268 181.447 161.515 193.359 148.764C193.359 148.764 212.077 142.389 226.116 178.516L195.486 208.268Z" fill="black"/>
<path d="M266.573 164.601C266.573 164.601 303.802 132.993 320.272 138.777C320.272 138.777 333.628 153.348 306.14 180.692L266.573 164.601Z" fill="#6C63FF"/>
<path opacity="0.2" d="M266.573 164.601C266.573 164.601 303.802 132.993 320.272 138.777C320.272 138.777 333.628 153.348 306.14 180.692L266.573 164.601Z" fill="black"/>
<path d="M382.669 316.013C382.669 357.21 353.079 389.756 325.238 389.756C297.396 389.756 281.845 357.21 281.845 316.013C281.845 274.817 304.462 243.03 332.257 241.42C376.287 238.87 382.669 274.817 382.669 316.013Z" fill="#6C63FF"/>
<path opacity="0.2" d="M382.669 316.013C382.669 357.21 353.079 389.756 325.238 389.756C297.396 389.756 281.845 357.21 281.845 316.013C281.845 274.817 304.462 243.03 332.257 241.42C376.287 238.87 382.669 274.817 382.669 316.013Z" fill="black"/>
<path d="M323.536 334.077C328.705 334.077 332.895 328.749 332.895 322.176C332.895 315.604 328.705 310.275 323.536 310.275C318.367 310.275 314.177 315.604 314.177 322.176C314.177 328.749 318.367 334.077 323.536 334.077Z" fill="#6C63FF"/>
<path d="M356.718 323.876C361.887 323.876 366.078 318.548 366.078 311.976C366.078 305.403 361.887 300.075 356.718 300.075C351.549 300.075 347.359 305.403 347.359 311.976C347.359 318.548 351.549 323.876 356.718 323.876Z" fill="#6C63FF"/>
<path d="M272.665 169.081C272.671 171.746 272.049 174.376 270.848 176.757C269.264 179.92 266.692 182.483 263.523 184.059C256.737 176.828 249.334 170.202 241.397 164.257C242.104 161.828 243.355 159.593 245.055 157.72C246.521 156.087 248.314 154.78 250.318 153.883C252.321 152.986 254.491 152.519 256.686 152.513C265.509 152.513 272.665 159.93 272.665 169.081Z" fill="#FAD46F"/>
<path fill-rule="evenodd" clip-rule="evenodd" d="M943.274 109.452C947.851 104.084 950.949 97.5062 950.431 90.1355C948.94 68.8985 919.351 73.5704 913.595 84.289C907.839 95.0076 908.523 122.196 915.962 124.112C918.928 124.876 925.248 123.005 931.68 119.131L927.643 147.667H951.481L943.274 109.452Z" fill="#B28B67"/>
<path fill-rule="evenodd" clip-rule="evenodd" d="M927.182 71.9355C930.324 71.4207 938.783 71.0668 940.343 71.067C941.34 71.067 942.421 71.2946 943.011 70.38C943.495 69.631 943.318 68.3644 943.462 67.4953C943.629 66.4856 943.867 65.489 944.108 64.4949C944.793 61.6661 945.829 58.9749 947.279 56.4482C949.999 51.7078 953.983 47.9946 959.013 45.8339C964.568 43.4481 970.854 42.9018 976.829 43.3858C983.223 43.9035 989.011 46.0123 995.047 47.9969C1000.8 49.888 1006.83 50.6323 1012.84 49.7088C1018.91 48.7785 1023.49 45.4957 1028.6 42.38C1033.83 39.1903 1039.82 37.104 1046 37.5836C1051.78 38.0314 1057.1 40.4144 1061.88 43.5978C1066.35 46.5762 1070.04 50.1596 1072.12 55.203C1074.36 60.6282 1074.36 66.5832 1070.67 71.3777C1065.34 78.3275 1055.43 80.1247 1047.18 79.9461C1042.41 79.843 1037.73 78.9732 1033.23 77.391C1027.22 75.2808 1022.03 71.7042 1016.41 68.8024C1013.78 67.4406 1011.05 66.3223 1008.2 65.5166C1005.42 64.7346 1002.69 64.3759 1000.18 66.0488C997.529 67.8185 995.15 69.557 992.113 70.6649C989.2 71.7278 986.113 72.3223 983.009 72.2983C976.969 72.2517 971.016 70.3715 965.15 69.1122C960.366 68.0854 955.248 67.0621 950.371 68.0491C948.336 68.461 945.364 69.3114 944.629 71.4244C956.999 73.6643 961.858 88.9494 958.37 100.17C956.488 106.226 945.174 113.306 940.775 110.122C937.988 108.105 939.68 105.457 940.775 103.709C942.872 100.361 943.589 96.0612 939.709 93.7305C936.362 91.7204 932.843 96.4939 932.776 96.4886C931.856 96.4162 923.908 91.9249 918.431 85.3709C913.028 85.6909 912.209 82.1317 913.499 79.221C914.789 76.3103 922.841 72.6472 927.182 71.9355Z" fill="#191847"/>
<path fill-rule="evenodd" clip-rule="evenodd" d="M957.43 230.056L883.625 353.334L828.292 457.555H816.373L909.085 230.056L957.43 230.056Z" fill="#997659"/>
<path fill-rule="evenodd" clip-rule="evenodd" d="M835.579 452.744C836.69 455.707 837.246 457.925 837.246 459.396C837.246 461.186 836.947 463.797 836.35 467.23C834.273 467.23 815.599 467.23 780.329 467.23C778.873 462.422 779.713 459.826 782.85 459.443C785.986 459.059 788.592 458.713 790.667 458.404L816.705 446.806C817.206 446.583 817.793 446.808 818.017 447.309C818.02 447.317 818.024 447.326 818.028 447.335L819.701 451.391C822.605 452.745 824.965 453.421 826.78 453.421C828.255 453.421 830.292 452.826 832.891 451.636L832.891 451.636C833.888 451.179 835.067 451.617 835.524 452.613C835.544 452.656 835.562 452.7 835.579 452.744Z" fill="#E4E4E4"/>
<path fill-rule="evenodd" clip-rule="evenodd" d="M843.659 440.866L820.675 433.92C830.745 403.843 843.087 370.745 857.701 334.625C872.316 298.506 888.011 263.649 904.787 230.056H969.703C951.051 272.55 931.278 311.161 910.383 345.89C889.489 380.618 867.247 412.277 843.659 440.866Z" fill="#191847"/>
<path fill-rule="evenodd" clip-rule="evenodd" d="M962.281 230.056C969.246 273.377 982.682 328.724 983.95 330.432C984.795 331.571 1015.23 341.758 1075.24 360.995L1072.67 371.495C1001.1 361.178 963.388 353.174 959.535 347.483C953.756 338.945 924.902 271.5 913.727 230.056H962.281Z" fill="#B28B67"/>
<path fill-rule="evenodd" clip-rule="evenodd" d="M1054.14 351.918L1049.61 368.83C996.081 373.52 963.282 370.131 951.215 358.662C939.147 347.193 925.393 304.324 909.953 230.056H971.854C981.636 290.872 987.105 322.556 988.261 325.109C989.416 327.662 1011.38 336.598 1054.14 351.918Z" fill="#191847"/>
<path fill-rule="evenodd" clip-rule="evenodd" d="M1072.31 356.62C1075.42 356.041 1077.7 355.879 1079.15 356.134C1080.91 356.444 1083.44 357.191 1086.72 358.374C1086.35 360.419 1083.11 378.793 1076.98 413.498C1071.99 414.096 1069.58 412.818 1069.75 409.666C1069.91 406.513 1070.02 403.889 1070.08 401.794L1063.18 374.161C1063.04 373.629 1063.37 373.09 1063.9 372.957C1063.91 372.955 1063.92 372.953 1063.93 372.951L1068.21 372.008C1070.05 369.386 1071.13 367.181 1071.44 365.395C1071.7 363.944 1071.47 361.836 1070.75 359.073L1070.75 359.073C1070.47 358.012 1071.11 356.928 1072.17 356.651C1072.21 356.639 1072.26 356.628 1072.31 356.62Z" fill="#E4E4E4"/>
<path fill-rule="evenodd" clip-rule="evenodd" d="M871.968 214.287L843.831 241.711C835.645 245.2 828.937 249.052 823.708 253.268C822.532 254.686 821.251 257.401 826.784 256.186C832.317 254.971 838.191 253.941 839.231 255.739C840.271 257.537 837.207 260.291 839.129 262.644C840.41 264.212 844.719 259.223 852.055 247.677L881.314 230.442L871.968 214.287ZM996.858 218.154L976.101 218.236C988.917 259.572 995.836 281.504 996.858 284.033C999.156 289.724 994.292 298.391 992.212 303.048C998.986 306.077 998.265 294.861 1006.81 298.833C1014.61 302.459 1020.54 309.028 1029.55 303.472C1030.66 302.789 1031.88 300.218 1028.94 298.208C1021.64 293.202 1011.1 284.439 1009.68 281.555C1007.74 277.622 1003.47 256.488 996.858 218.154Z" fill="#B28B67"/>
<path fill-rule="evenodd" clip-rule="evenodd" d="M937.871 131.137L929.282 129.665C914.495 166.571 888.678 200.105 851.831 230.267L879.674 264.063C916.517 221.117 939.226 176.808 937.871 131.137Z" fill="#564FCC"/>
<path fill-rule="evenodd" clip-rule="evenodd" d="M975.312 238.974H898.831C916.549 195.931 925.409 159.366 925.409 129.28L948.479 125.845C966.611 154.979 971.731 190.849 975.312 238.974Z" fill="#DDE3E9"/>
<path fill-rule="evenodd" clip-rule="evenodd" d="M948.968 125.862C948.965 125.856 948.962 125.851 948.959 125.845L947.453 125.845C945.651 125.907 942.906 126.019 939.219 126.18L933.644 142.097C933.054 161.503 929.611 200.612 923.313 259.423H973.448C973.317 263.485 973.1 267.585 972.798 271.722H1010.08C1004.5 208.87 984.137 160.244 948.986 125.845L948.968 125.862V125.862Z" fill="#6C63FF"/>
<path fill-rule="evenodd" clip-rule="evenodd" d="M970.137 207.45C968.71 232.77 965.137 250.225 959.42 259.814H973.435C974.049 241.597 972.949 224.143 970.137 207.45V207.45Z" fill="black" fill-opacity="0.1"/>
<path fill-rule="evenodd" clip-rule="evenodd" d="M962.289 229.051L937.568 217.568V229.051H962.289Z" fill="white" fill-opacity="0.2"/>
</svg>
