<svg width="1134" height="390" viewBox="0 0 1134 390" fill="none" xmlns="http://www.w3.org/2000/svg">
<g clip-path="url(#clip0)">
<g opacity="0.25">
<path opacity="0.25" d="M216.43 114.927C241.509 114.927 261.84 94.5962 261.84 69.5169C261.84 44.4377 241.509 24.1069 216.43 24.1069C191.351 24.1069 171.02 44.4377 171.02 69.5169C171.02 94.5962 191.351 114.927 216.43 114.927Z" fill="#8EEDC7"/>
<path opacity="0.25" d="M203.723 388.103L150.383 335.545L137.155 322.511L97.674 283.611L48.732 335.856L0 387.888" fill="#F2F2F2"/>
<path opacity="0.25" d="M466.407 388.421H105.763L150.383 340.053L232.822 243.353L238.378 236.837L312.953 149.363L364.553 231.087L365.904 233.226L431.55 337.181L466.407 388.421Z" fill="#F2F2F2"/>
<path opacity="0.25" d="M645 388.103L555.92 282.996L512.252 231.472L470.046 284.392L431.546 332.678L387.517 387.882" fill="#F2F2F2"/>
<path opacity="0.1" d="M137.155 322.511L113.655 338.27L85.9051 327.338L48.7361 335.856L97.6781 283.61L137.155 322.511Z" fill="black"/>
<path opacity="0.1" d="M364.55 231.091L356.676 244.925L339.021 226.425L319.678 244.925L308.745 223.906L291.084 244.925L286.038 231.475L274.27 244.925L253.245 231.475L238.378 236.839L312.95 149.363L364.55 231.091Z" fill="black"/>
<path opacity="0.1" d="M555.921 282.996L534.115 309.682L516.456 288.659L489.547 310.523L470.041 284.392L512.247 231.472L555.921 282.996Z" fill="black"/>
<path opacity="0.25" d="M556.189 389.122L555.012 388.514C570.297 358.963 562.124 320.587 552.576 293.597C546.093 275.456 537.824 258.003 527.89 241.497L529.009 240.79C538.994 257.38 547.307 274.921 553.824 293.155C563.46 320.392 571.691 359.151 556.189 389.122Z" fill="#2F2E41"/>
<path opacity="0.25" d="M567.525 241.026L558.933 288.047L560.235 288.285L568.827 241.264L567.525 241.026Z" fill="#2F2E41"/>
<path opacity="0.25" d="M510.392 281.086L509.422 281.988L553.776 329.663L554.745 328.761L510.392 281.086Z" fill="#2F2E41"/>
<path opacity="0.25" d="M590.164 333.481L567.653 364.596L568.726 365.372L591.237 334.257L590.164 333.481Z" fill="#2F2E41"/>
<path opacity="0.25" d="M571.494 228.561C575.151 228.561 578.116 225.596 578.116 221.939C578.116 218.282 575.151 215.317 571.494 215.317C567.837 215.317 564.872 218.282 564.872 221.939C564.872 225.596 567.837 228.561 571.494 228.561Z" fill="#8EEDC7"/>
<path opacity="0.25" d="M499.312 279.552C502.969 279.552 505.934 276.587 505.934 272.93C505.934 269.273 502.969 266.308 499.312 266.308C495.655 266.308 492.69 269.273 492.69 272.93C492.69 276.587 495.655 279.552 499.312 279.552Z" fill="#3F3D56"/>
<path opacity="0.25" d="M528.45 286.174C532.107 286.174 535.072 283.209 535.072 279.552C535.072 275.895 532.107 272.93 528.45 272.93C524.793 272.93 521.828 275.895 521.828 279.552C521.828 283.209 524.793 286.174 528.45 286.174Z" fill="#3F3D56"/>
<path opacity="0.25" d="M515.205 312C518.862 312 521.827 309.035 521.827 305.378C521.827 301.721 518.862 298.756 515.205 298.756C511.548 298.756 508.583 301.721 508.583 305.378C508.583 309.035 511.548 312 515.205 312Z" fill="#8EEDC7"/>
<path opacity="0.25" d="M597.982 328.556C601.639 328.556 604.604 325.591 604.604 321.934C604.604 318.277 601.639 315.312 597.982 315.312C594.325 315.312 591.36 318.277 591.36 321.934C591.36 325.591 594.325 328.556 597.982 328.556Z" fill="#3F3D56"/>
<path opacity="0.25" d="M576.129 335.84C579.786 335.84 582.751 332.875 582.751 329.218C582.751 325.561 579.786 322.596 576.129 322.596C572.472 322.596 569.507 325.561 569.507 329.218C569.507 332.875 572.472 335.84 576.129 335.84Z" fill="#3F3D56"/>
<path opacity="0.25" d="M591.36 357.031C595.017 357.031 597.982 354.066 597.982 350.409C597.982 346.752 595.017 343.787 591.36 343.787C587.703 343.787 584.738 346.752 584.738 350.409C584.738 354.066 587.703 357.031 591.36 357.031Z" fill="#3F3D56"/>
<path opacity="0.25" d="M521.827 236.508C525.484 236.508 528.449 233.543 528.449 229.886C528.449 226.229 525.484 223.264 521.827 223.264C518.17 223.264 515.205 226.229 515.205 229.886C515.205 233.543 518.17 236.508 521.827 236.508Z" fill="#3F3D56"/>
<path opacity="0.25" d="M391.297 387.798L390.12 387.19C405.405 357.639 397.232 319.263 387.684 292.273C381.201 274.132 372.932 256.679 362.998 240.173L364.117 239.465C374.102 256.055 382.415 273.596 388.932 291.83C398.568 319.068 406.799 357.827 391.297 387.798Z" fill="#2F2E41"/>
<path opacity="0.25" d="M402.632 239.701L394.04 286.722L395.342 286.96L403.934 239.939L402.632 239.701Z" fill="#2F2E41"/>
<path opacity="0.25" d="M345.5 279.762L344.53 280.664L388.884 328.339L389.853 327.437L345.5 279.762Z" fill="#2F2E41"/>
<path opacity="0.25" d="M425.271 332.156L402.76 363.271L403.833 364.047L426.344 332.932L425.271 332.156Z" fill="#2F2E41"/>
<path opacity="0.25" d="M406.601 227.237C410.258 227.237 413.223 224.272 413.223 220.615C413.223 216.958 410.258 213.993 406.601 213.993C402.944 213.993 399.979 216.958 399.979 220.615C399.979 224.272 402.944 227.237 406.601 227.237Z" fill="#3F3D56"/>
<path opacity="0.25" d="M334.42 278.227C338.077 278.227 341.042 275.262 341.042 271.605C341.042 267.948 338.077 264.983 334.42 264.983C330.763 264.983 327.798 267.948 327.798 271.605C327.798 275.262 330.763 278.227 334.42 278.227Z" fill="#3F3D56"/>
<path opacity="0.25" d="M363.557 284.85C367.214 284.85 370.179 281.885 370.179 278.228C370.179 274.571 367.214 271.606 363.557 271.606C359.9 271.606 356.935 274.571 356.935 278.228C356.935 281.885 359.9 284.85 363.557 284.85Z" fill="#3F3D56"/>
<path opacity="0.25" d="M350.313 310.676C353.97 310.676 356.935 307.711 356.935 304.054C356.935 300.397 353.97 297.432 350.313 297.432C346.656 297.432 343.691 300.397 343.691 304.054C343.691 307.711 346.656 310.676 350.313 310.676Z" fill="#3F3D56"/>
<path opacity="0.25" d="M433.09 327.231C436.747 327.231 439.712 324.266 439.712 320.609C439.712 316.952 436.747 313.987 433.09 313.987C429.433 313.987 426.468 316.952 426.468 320.609C426.468 324.266 429.433 327.231 433.09 327.231Z" fill="#8EEDC7"/>
<path opacity="0.25" d="M411.237 334.516C414.894 334.516 417.859 331.551 417.859 327.894C417.859 324.237 414.894 321.272 411.237 321.272C407.58 321.272 404.615 324.237 404.615 327.894C404.615 331.551 407.58 334.516 411.237 334.516Z" fill="#3F3D56"/>
<path opacity="0.25" d="M426.468 355.707C430.125 355.707 433.09 352.742 433.09 349.085C433.09 345.428 430.125 342.463 426.468 342.463C422.811 342.463 419.846 345.428 419.846 349.085C419.846 352.742 422.811 355.707 426.468 355.707Z" fill="#3F3D56"/>
<path opacity="0.25" d="M356.935 235.183C360.592 235.183 363.557 232.218 363.557 228.561C363.557 224.904 360.592 221.939 356.935 221.939C353.278 221.939 350.313 224.904 350.313 228.561C350.313 232.218 353.278 235.183 356.935 235.183Z" fill="#3F3D56"/>
<path opacity="0.25" d="M114.633 387.798L115.81 387.19C100.525 357.639 108.698 319.263 118.246 292.273C124.729 274.132 132.999 256.679 142.933 240.173L141.814 239.466C131.829 256.056 123.516 273.597 116.999 291.831C107.367 319.068 99.1329 357.827 114.633 387.798Z" fill="#2F2E41"/>
<path opacity="0.25" d="M103.303 239.697L102.001 239.935L110.593 286.956L111.895 286.718L103.303 239.697Z" fill="#2F2E41"/>
<path opacity="0.25" d="M160.418 279.769L116.065 327.444L117.035 328.346L161.388 280.671L160.418 279.769Z" fill="#2F2E41"/>
<path opacity="0.25" d="M80.6712 332.136L79.5979 332.913L102.109 364.028L103.182 363.252L80.6712 332.136Z" fill="#2F2E41"/>
<path opacity="0.25" d="M99.332 227.237C102.989 227.237 105.954 224.272 105.954 220.615C105.954 216.958 102.989 213.993 99.332 213.993C95.6747 213.993 92.71 216.958 92.71 220.615C92.71 224.272 95.6747 227.237 99.332 227.237Z" fill="#3F3D56"/>
<path opacity="0.25" d="M171.514 278.227C175.171 278.227 178.136 275.262 178.136 271.605C178.136 267.948 175.171 264.983 171.514 264.983C167.857 264.983 164.892 267.948 164.892 271.605C164.892 275.262 167.857 278.227 171.514 278.227Z" fill="#3F3D56"/>
<path opacity="0.25" d="M142.377 284.85C146.034 284.85 148.999 281.885 148.999 278.228C148.999 274.571 146.034 271.606 142.377 271.606C138.72 271.606 135.755 274.571 135.755 278.228C135.755 281.885 138.72 284.85 142.377 284.85Z" fill="#3F3D56"/>
<path opacity="0.25" d="M155.621 310.676C159.278 310.676 162.243 307.711 162.243 304.054C162.243 300.397 159.278 297.432 155.621 297.432C151.964 297.432 148.999 300.397 148.999 304.054C148.999 307.711 151.964 310.676 155.621 310.676Z" fill="#3F3D56"/>
<path opacity="0.25" d="M72.8439 327.231C76.5012 327.231 79.4659 324.266 79.4659 320.609C79.4659 316.952 76.5012 313.987 72.8439 313.987C69.1867 313.987 66.2219 316.952 66.2219 320.609C66.2219 324.266 69.1867 327.231 72.8439 327.231Z" fill="#3F3D56"/>
<path opacity="0.25" d="M94.697 334.516C98.3542 334.516 101.319 331.551 101.319 327.894C101.319 324.237 98.3542 321.272 94.697 321.272C91.0397 321.272 88.075 324.237 88.075 327.894C88.075 331.551 91.0397 334.516 94.697 334.516Z" fill="#3F3D56"/>
<path opacity="0.25" d="M79.466 355.707C83.1232 355.707 86.088 352.742 86.088 349.085C86.088 345.428 83.1232 342.463 79.466 342.463C75.8088 342.463 72.844 345.428 72.844 349.085C72.844 352.742 75.8088 355.707 79.466 355.707Z" fill="#8EEDC7"/>
<path opacity="0.25" d="M148.999 235.183C152.656 235.183 155.621 232.218 155.621 228.561C155.621 224.904 152.656 221.939 148.999 221.939C145.342 221.939 142.377 224.904 142.377 228.561C142.377 232.218 145.342 235.183 148.999 235.183Z" fill="#3F3D56"/>
<path opacity="0.25" d="M645 387.494H0V388.818H645V387.494Z" fill="#2F2E41"/>
<path opacity="0.25" d="M146.647 148.226C143.089 144.654 138.691 142.034 133.857 140.605C129.022 139.176 123.907 138.985 118.979 140.048C114.051 141.112 109.47 143.397 105.655 146.692C101.84 149.988 98.9149 154.189 97.147 158.91L152.415 156.349C150.958 153.339 149.008 150.594 146.647 148.226V148.226Z" fill="#F2F2F2"/>
<path opacity="0.25" d="M265.846 103.857C262.288 100.285 257.89 97.665 253.056 96.2362C248.221 94.8074 243.106 94.616 238.178 95.6796C233.25 96.7431 228.669 99.0276 224.854 102.323C221.039 105.619 218.114 109.82 216.346 114.541L271.614 111.98C270.157 108.97 268.207 106.225 265.846 103.857V103.857Z" fill="#F2F2F2"/>
<path opacity="0.25" d="M475.769 214.447C472.211 210.876 467.813 208.255 462.979 206.826C458.145 205.397 453.029 205.206 448.101 206.27C443.173 207.333 438.592 209.618 434.777 212.913C430.963 216.209 428.037 220.41 426.269 225.131L481.537 222.57C480.08 219.56 478.13 216.815 475.769 214.447V214.447Z" fill="#F2F2F2"/>
</g>
<g opacity="0.25">
<path opacity="0.25" d="M748.43 149.927C773.509 149.927 793.84 129.596 793.84 104.517C793.84 79.4377 773.509 59.1069 748.43 59.1069C723.351 59.1069 703.02 79.4377 703.02 104.517C703.02 129.596 723.351 149.927 748.43 149.927Z" fill="#8EEDC7"/>
<path opacity="0.25" d="M692.723 293.103L639.383 240.545L626.155 227.511L586.674 188.611L537.732 240.856L489 292.888" fill="#F2F2F2"/>
<path opacity="0.25" d="M955.407 293.421H594.763L639.383 245.053L721.822 148.353L727.378 141.837L801.953 54.363L853.553 136.087L854.904 138.226L920.55 242.181L955.407 293.421Z" fill="#F2F2F2"/>
<path opacity="0.25" d="M1134 293.103L1044.92 187.996L1001.25 136.472L959.046 189.392L920.546 237.678L876.517 292.882" fill="#F2F2F2"/>
<path opacity="0.1" d="M626.155 227.511L602.655 243.27L574.905 232.338L537.736 240.856L586.678 188.61L626.155 227.511Z" fill="black"/>
<path opacity="0.1" d="M853.55 136.091L845.676 149.925L828.021 131.425L808.678 149.925L797.745 128.906L780.084 149.925L775.038 136.475L763.27 149.925L742.245 136.475L727.378 141.839L801.95 54.363L853.55 136.091Z" fill="black"/>
<path opacity="0.1" d="M1044.92 187.996L1023.12 214.682L1005.46 193.659L978.547 215.523L959.041 189.392L1001.25 136.472L1044.92 187.996Z" fill="black"/>
<path opacity="0.25" d="M1045.19 294.122L1044.01 293.514C1059.3 263.963 1051.12 225.587 1041.58 198.597C1035.09 180.456 1026.82 163.003 1016.89 146.497L1018.01 145.79C1027.99 162.38 1036.31 179.921 1042.82 198.155C1052.46 225.392 1060.69 264.151 1045.19 294.122Z" fill="#2F2E41"/>
<path opacity="0.25" d="M1056.52 146.026L1047.93 193.047L1049.24 193.285L1057.83 146.264L1056.52 146.026Z" fill="#2F2E41"/>
<path opacity="0.25" d="M999.392 186.086L998.422 186.988L1042.78 234.663L1043.75 233.761L999.392 186.086Z" fill="#2F2E41"/>
<path opacity="0.25" d="M1079.16 238.481L1056.65 269.596L1057.73 270.372L1080.24 239.257L1079.16 238.481Z" fill="#2F2E41"/>
<path opacity="0.25" d="M1060.49 133.561C1064.15 133.561 1067.12 130.596 1067.12 126.939C1067.12 123.282 1064.15 120.317 1060.49 120.317C1056.84 120.317 1053.87 123.282 1053.87 126.939C1053.87 130.596 1056.84 133.561 1060.49 133.561Z" fill="#8EEDC7"/>
<path opacity="0.25" d="M988.312 184.552C991.969 184.552 994.934 181.587 994.934 177.93C994.934 174.273 991.969 171.308 988.312 171.308C984.655 171.308 981.69 174.273 981.69 177.93C981.69 181.587 984.655 184.552 988.312 184.552Z" fill="#3F3D56"/>
<path opacity="0.25" d="M1017.45 191.174C1021.11 191.174 1024.07 188.209 1024.07 184.552C1024.07 180.895 1021.11 177.93 1017.45 177.93C1013.79 177.93 1010.83 180.895 1010.83 184.552C1010.83 188.209 1013.79 191.174 1017.45 191.174Z" fill="#3F3D56"/>
<path opacity="0.25" d="M1004.21 217C1007.86 217 1010.83 214.035 1010.83 210.378C1010.83 206.721 1007.86 203.756 1004.21 203.756C1000.55 203.756 997.583 206.721 997.583 210.378C997.583 214.035 1000.55 217 1004.21 217Z" fill="#8EEDC7"/>
<path opacity="0.25" d="M1086.98 233.556C1090.64 233.556 1093.6 230.591 1093.6 226.934C1093.6 223.277 1090.64 220.312 1086.98 220.312C1083.32 220.312 1080.36 223.277 1080.36 226.934C1080.36 230.591 1083.32 233.556 1086.98 233.556Z" fill="#3F3D56"/>
<path opacity="0.25" d="M1065.13 240.84C1068.79 240.84 1071.75 237.875 1071.75 234.218C1071.75 230.561 1068.79 227.596 1065.13 227.596C1061.47 227.596 1058.51 230.561 1058.51 234.218C1058.51 237.875 1061.47 240.84 1065.13 240.84Z" fill="#3F3D56"/>
<path opacity="0.25" d="M1080.36 262.031C1084.02 262.031 1086.98 259.066 1086.98 255.409C1086.98 251.752 1084.02 248.787 1080.36 248.787C1076.7 248.787 1073.74 251.752 1073.74 255.409C1073.74 259.066 1076.7 262.031 1080.36 262.031Z" fill="#3F3D56"/>
<path opacity="0.25" d="M1010.83 141.508C1014.48 141.508 1017.45 138.543 1017.45 134.886C1017.45 131.229 1014.48 128.264 1010.83 128.264C1007.17 128.264 1004.21 131.229 1004.21 134.886C1004.21 138.543 1007.17 141.508 1010.83 141.508Z" fill="#3F3D56"/>
<path opacity="0.25" d="M880.297 292.798L879.12 292.19C894.405 262.639 886.232 224.263 876.684 197.273C870.201 179.132 861.932 161.679 851.998 145.173L853.117 144.465C863.102 161.055 871.415 178.596 877.932 196.83C887.568 224.068 895.799 262.827 880.297 292.798Z" fill="#2F2E41"/>
<path opacity="0.25" d="M891.632 144.701L883.04 191.722L884.342 191.96L892.934 144.939L891.632 144.701Z" fill="#2F2E41"/>
<path opacity="0.25" d="M834.5 184.762L833.53 185.664L877.884 233.339L878.853 232.437L834.5 184.762Z" fill="#2F2E41"/>
<path opacity="0.25" d="M914.271 237.156L891.76 268.271L892.833 269.047L915.344 237.932L914.271 237.156Z" fill="#2F2E41"/>
<path opacity="0.25" d="M895.601 132.237C899.258 132.237 902.223 129.272 902.223 125.615C902.223 121.958 899.258 118.993 895.601 118.993C891.944 118.993 888.979 121.958 888.979 125.615C888.979 129.272 891.944 132.237 895.601 132.237Z" fill="#3F3D56"/>
<path opacity="0.25" d="M823.42 183.227C827.077 183.227 830.042 180.262 830.042 176.605C830.042 172.948 827.077 169.983 823.42 169.983C819.763 169.983 816.798 172.948 816.798 176.605C816.798 180.262 819.763 183.227 823.42 183.227Z" fill="#3F3D56"/>
<path opacity="0.25" d="M852.557 189.85C856.214 189.85 859.179 186.885 859.179 183.228C859.179 179.571 856.214 176.606 852.557 176.606C848.9 176.606 845.935 179.571 845.935 183.228C845.935 186.885 848.9 189.85 852.557 189.85Z" fill="#3F3D56"/>
<path opacity="0.25" d="M839.313 215.676C842.97 215.676 845.935 212.711 845.935 209.054C845.935 205.397 842.97 202.432 839.313 202.432C835.656 202.432 832.691 205.397 832.691 209.054C832.691 212.711 835.656 215.676 839.313 215.676Z" fill="#3F3D56"/>
<path opacity="0.25" d="M922.09 232.231C925.747 232.231 928.712 229.266 928.712 225.609C928.712 221.952 925.747 218.987 922.09 218.987C918.433 218.987 915.468 221.952 915.468 225.609C915.468 229.266 918.433 232.231 922.09 232.231Z" fill="#8EEDC7"/>
<path opacity="0.25" d="M900.237 239.516C903.894 239.516 906.859 236.551 906.859 232.894C906.859 229.237 903.894 226.272 900.237 226.272C896.58 226.272 893.615 229.237 893.615 232.894C893.615 236.551 896.58 239.516 900.237 239.516Z" fill="#3F3D56"/>
<path opacity="0.25" d="M915.468 260.707C919.125 260.707 922.09 257.742 922.09 254.085C922.09 250.428 919.125 247.463 915.468 247.463C911.811 247.463 908.846 250.428 908.846 254.085C908.846 257.742 911.811 260.707 915.468 260.707Z" fill="#3F3D56"/>
<path opacity="0.25" d="M845.935 140.183C849.592 140.183 852.557 137.218 852.557 133.561C852.557 129.904 849.592 126.939 845.935 126.939C842.278 126.939 839.313 129.904 839.313 133.561C839.313 137.218 842.278 140.183 845.935 140.183Z" fill="#3F3D56"/>
<path opacity="0.25" d="M603.633 292.798L604.81 292.19C589.525 262.639 597.698 224.263 607.246 197.273C613.73 179.132 621.999 161.679 631.933 145.173L630.814 144.466C620.829 161.056 612.516 178.597 605.999 196.831C596.367 224.068 588.133 262.827 603.633 292.798Z" fill="#2F2E41"/>
<path opacity="0.25" d="M592.303 144.697L591.001 144.935L599.593 191.956L600.895 191.718L592.303 144.697Z" fill="#2F2E41"/>
<path opacity="0.25" d="M649.418 184.769L605.065 232.444L606.035 233.346L650.388 185.671L649.418 184.769Z" fill="#2F2E41"/>
<path opacity="0.25" d="M569.671 237.137L568.598 237.913L591.109 269.028L592.182 268.252L569.671 237.137Z" fill="#2F2E41"/>
<path opacity="0.25" d="M588.332 132.237C591.989 132.237 594.954 129.272 594.954 125.615C594.954 121.958 591.989 118.993 588.332 118.993C584.675 118.993 581.71 121.958 581.71 125.615C581.71 129.272 584.675 132.237 588.332 132.237Z" fill="#3F3D56"/>
<path opacity="0.25" d="M660.514 183.227C664.171 183.227 667.136 180.262 667.136 176.605C667.136 172.948 664.171 169.983 660.514 169.983C656.857 169.983 653.892 172.948 653.892 176.605C653.892 180.262 656.857 183.227 660.514 183.227Z" fill="#3F3D56"/>
<path opacity="0.25" d="M631.377 189.85C635.034 189.85 637.999 186.885 637.999 183.228C637.999 179.571 635.034 176.606 631.377 176.606C627.72 176.606 624.755 179.571 624.755 183.228C624.755 186.885 627.72 189.85 631.377 189.85Z" fill="#3F3D56"/>
<path opacity="0.25" d="M644.621 215.676C648.278 215.676 651.243 212.711 651.243 209.054C651.243 205.397 648.278 202.432 644.621 202.432C640.964 202.432 637.999 205.397 637.999 209.054C637.999 212.711 640.964 215.676 644.621 215.676Z" fill="#3F3D56"/>
<path opacity="0.25" d="M561.844 232.231C565.501 232.231 568.466 229.266 568.466 225.609C568.466 221.952 565.501 218.987 561.844 218.987C558.187 218.987 555.222 221.952 555.222 225.609C555.222 229.266 558.187 232.231 561.844 232.231Z" fill="#3F3D56"/>
<path opacity="0.25" d="M583.697 239.516C587.354 239.516 590.319 236.551 590.319 232.894C590.319 229.237 587.354 226.272 583.697 226.272C580.04 226.272 577.075 229.237 577.075 232.894C577.075 236.551 580.04 239.516 583.697 239.516Z" fill="#3F3D56"/>
<path opacity="0.25" d="M568.466 260.707C572.123 260.707 575.088 257.742 575.088 254.085C575.088 250.428 572.123 247.463 568.466 247.463C564.809 247.463 561.844 250.428 561.844 254.085C561.844 257.742 564.809 260.707 568.466 260.707Z" fill="#8EEDC7"/>
<path opacity="0.25" d="M637.999 140.183C641.656 140.183 644.621 137.218 644.621 133.561C644.621 129.904 641.656 126.939 637.999 126.939C634.342 126.939 631.377 129.904 631.377 133.561C631.377 137.218 634.342 140.183 637.999 140.183Z" fill="#3F3D56"/>
<path opacity="0.25" d="M1134 292.494H489V293.818H1134V292.494Z" fill="#2F2E41"/>
<path opacity="0.25" d="M635.647 53.2259C632.089 49.6544 627.691 47.0339 622.857 45.6051C618.022 44.1763 612.907 43.9849 607.979 45.0485C603.051 46.112 598.47 48.3965 594.655 51.6921C590.84 54.9878 587.915 59.1889 586.147 63.9099L641.415 61.3489C639.958 58.339 638.008 55.5935 635.647 53.2259V53.2259Z" fill="#F2F2F2"/>
<path opacity="0.25" d="M754.846 8.85696C751.288 5.2855 746.89 2.66505 742.056 1.23622C737.221 -0.192604 732.106 -0.384017 727.178 0.679558C722.25 1.74313 717.669 4.0276 713.854 7.32323C710.039 10.6189 707.114 14.82 705.346 19.541L760.614 16.98C759.157 13.9701 757.207 11.2247 754.846 8.85696V8.85696Z" fill="#F2F2F2"/>
<path opacity="0.25" d="M964.769 119.447C961.211 115.876 956.813 113.255 951.979 111.826C947.145 110.397 942.029 110.206 937.101 111.27C932.173 112.333 927.592 114.618 923.777 117.913C919.963 121.209 917.037 125.41 915.269 130.131L970.537 127.57C969.08 124.56 967.13 121.815 964.769 119.447V119.447Z" fill="#F2F2F2"/>
</g>
</g>
<defs>
<clipPath id="clip0">
<rect width="1134" height="389.122" fill="white"/>
</clipPath>
</defs>
</svg>
